<?xml version="1.0" standalone="no"?>
<!DOCTYPE svg PUBLIC "-//W3C//DTD SVG 20010904//EN"
 "http://www.w3.org/TR/2001/REC-SVG-20010904/DTD/svg10.dtd">
<svg version="1.0" xmlns="http://www.w3.org/2000/svg"
 width="500.000000pt" height="500.000000pt" viewBox="0 0 500.000000 500.000000"
 preserveAspectRatio="xMidYMid meet">
<metadata>
Created by potrace 1.14, written by Peter Selinger 2001-2017
</metadata>
<g transform="translate(0.000000,500.000000) scale(0.100000,-0.100000)"
fill="#000000" stroke="none">
<path d="M2377 4854 c-1 -1 -63 -4 -137 -7 -74 -3 -144 -8 -155 -10 -11 -3
-42 -8 -69 -11 -27 -4 -52 -9 -55 -11 -3 -1 -24 -6 -46 -9 -106 -17 -298 -76
-454 -141 -460 -190 -887 -564 -1145 -1005 -40 -69 -136 -268 -136 -283 0 -7
-4 -17 -9 -22 -31 -33 -121 -377 -145 -550 -16 -120 -20 -454 -6 -545 5 -30
11 -73 14 -95 2 -22 12 -76 21 -120 10 -44 18 -87 20 -95 2 -9 15 -56 30 -105
220 -720 780 -1297 1502 -1548 90 -32 262 -78 338 -92 73 -13 226 -34 290 -40
39 -3 84 -8 100 -10 39 -6 438 -6 490 0 46 5 116 14 160 21 69 11 262 57 280
67 11 6 21 10 23 9 13 -10 268 88 382 147 254 131 453 275 635 461 55 56 105
107 110 114 129 151 246 328 328 491 68 137 166 411 183 512 2 15 7 34 9 41 2
7 7 34 11 60 3 26 8 50 10 53 25 43 25 634 0 711 -3 7 -7 31 -11 53 -11 77
-38 186 -76 305 -113 349 -304 658 -578 930 -203 202 -396 340 -643 460 -117
57 -291 128 -332 136 -10 2 -33 8 -50 14 -48 15 -226 57 -276 65 -25 4 -56 8
-70 10 -135 21 -529 49 -543 39z m-499 -1491 c93 -102 142 -285 136 -508 -4
-154 -28 -261 -82 -375 -37 -76 -109 -160 -137 -160 -37 0 -122 132 -146 226
-56 217 -48 451 23 642 11 31 27 64 34 73 8 8 14 20 14 26 0 16 94 113 110
113 7 0 29 -17 48 -37z m1380 -24 c158 -161 185 -629 52 -891 -38 -75 -60
-103 -103 -135 l-32 -24 -36 40 c-87 97 -130 239 -135 446 -3 126 4 195 30
310 21 94 91 224 142 264 35 28 46 27 82 -10z m-2284 -905 c2 -66 7 -130 10
-144 3 -14 8 -41 10 -60 3 -19 15 -70 26 -113 71 -268 212 -500 428 -701 91
-85 281 -201 422 -260 94 -38 258 -79 370 -91 122 -13 566 -4 592 11 4 3 26 7
50 10 64 9 241 70 338 117 185 90 396 265 518 432 159 215 262 502 276 770 5
82 14 98 44 73 9 -8 72 -49 139 -92 66 -42 124 -84 127 -92 14 -37 -1 -104
-24 -104 -5 0 -31 13 -57 30 -57 36 -63 37 -63 6 0 -40 -15 -39 -82 3 -34 22
-66 37 -71 32 -4 -4 -10 -25 -12 -46 -24 -184 -119 -424 -241 -610 -81 -122
-110 -159 -199 -250 -303 -310 -718 -485 -1149 -483 -112 1 -272 28 -366 63
-25 9 -53 18 -63 20 -33 7 -231 105 -297 148 -266 170 -467 395 -598 668 -59
122 -110 267 -127 359 -1 8 -6 35 -11 60 -4 25 -9 48 -10 53 -1 4 -2 23 -3 42
l-1 35 -71 -36 c-39 -19 -73 -33 -76 -31 -2 3 -7 20 -10 39 -3 18 -6 35 -8 37
-2 2 -27 -11 -55 -28 -61 -37 -68 -38 -76 -6 -8 32 1 66 23 89 19 19 286 176
291 171 1 -1 4 -56 6 -121z"/>
</g>
</svg>
