<?xml version="1.0" encoding="utf-8"?>
<!-- Generator: Adobe Illustrator 26.0.1, SVG Export Plug-In . SVG Version: 6.00 Build 0)  -->
<svg version="1.1" id="Layer_1" xmlns="http://www.w3.org/2000/svg" xmlns:xlink="http://www.w3.org/1999/xlink" x="0px" y="0px"
	 viewBox="0 0 40 40" style="enable-background:new 0 0 40 40;" xml:space="preserve">
<style type="text/css">
	.st0{fill:none;}
	.st1{fill:#FFFFFF;}
</style>
<rect x="0" class="st0" width="40" height="40"/>
<g>
	<path class="st1" d="M27.6,13.8l-13,13c-0.6,0.6-1.6,0.6-2.2,0l0,0c-0.6-0.6-0.6-1.6,0-2.2l13-13c0.6-0.6,1.6-0.6,2.2,0l0,0
		C28.2,12.2,28.2,13.2,27.6,13.8z"/>
</g>
<g>
	<path class="st1" d="M25.4,26.4l-13-13c-0.6-0.6-0.6-1.6,0-2.2l0,0c0.6-0.6,1.6-0.6,2.2,0l13,13c0.6,0.6,0.6,1.6,0,2.2l0,0
		C27,27,26,27,25.4,26.4z"/>
</g>
</svg>
