<svg id="happy-face-dark" xmlns="http://www.w3.org/2000/svg" width="66.634" height="64.877" viewBox="0 0 66.634 64.877">
  <g id="happy-face-dark-2" data-name="happy-face-dark" transform="translate(33.317 32.438) rotate(-13)">
    <g id="Group_26" data-name="Group 26" transform="translate(-28 -26.827)">
      <path id="Path_40" data-name="Path 40" d="M39.577,2.954C25.053-.712,10.331,7.822,6.758,21.976S12.1,50.629,26.619,54.294s29.246-4.867,32.819-19.022S54.1,6.62,39.577,2.954ZM43.2,20.528c1.72.434,2.415,3.559,1.551,6.98s-2.958,5.842-4.678,5.408-2.415-3.559-1.551-6.98S41.48,20.094,43.2,20.528ZM28.048,16.7c1.72.434,2.415,3.559,1.551,6.98s-2.958,5.842-4.678,5.408-2.415-3.559-1.551-6.98S26.328,16.27,28.048,16.7ZM51.729,36.745l-1.5-1.525A18.258,18.258,0,0,1,28.521,46.405a18.258,18.258,0,0,1-13.8-20.149l-2.04.632a1.058,1.058,0,0,1-1.313-.663,1,1,0,0,1,.662-1.276l5.508-1.708-.449,1.778A16.136,16.136,0,0,0,29.018,44.436,16.136,16.136,0,0,0,48.736,33.007l.449-1.778,4.038,4.117a1,1,0,0,1-.022,1.438A1.058,1.058,0,0,1,51.729,36.745Z" transform="translate(-4.226 -1.49)" fill="#f41d07" style="mix-blend-mode: multiply;isolation: isolate"/>
      <path id="Path_41" data-name="Path 41" d="M33.607.85C19.083-2.816,4.361,5.717.788,19.872S6.125,48.524,20.649,52.19,49.9,47.323,53.468,33.168,48.131,4.516,33.607.85ZM37.23,18.424c1.72.434,2.415,3.559,1.551,6.98s-2.958,5.842-4.678,5.408-2.415-3.559-1.551-6.98S35.51,17.989,37.23,18.424ZM22.078,14.6c1.72.434,2.415,3.559,1.552,6.98s-2.958,5.842-4.678,5.408-2.415-3.559-1.551-6.98S20.358,14.165,22.078,14.6ZM45.759,34.64l-1.5-1.525A18.258,18.258,0,0,1,22.551,44.3a18.258,18.258,0,0,1-13.8-20.149l-2.04.633a1.058,1.058,0,0,1-1.313-.663,1,1,0,0,1,.662-1.276l5.508-1.708-.449,1.778A16.136,16.136,0,0,0,23.048,42.332,16.137,16.137,0,0,0,42.766,30.9l.449-1.778,4.038,4.117a1,1,0,0,1-.022,1.438A1.058,1.058,0,0,1,45.759,34.64Z" transform="translate(0 0)" fill="#19b7ff" style="mix-blend-mode: multiply;isolation: isolate"/>
    </g>
  </g>
</svg>
