<?xml version="1.0" encoding="utf-8"?>
<!-- Generator: Adobe Illustrator 26.0.3, SVG Export Plug-In . SVG Version: 6.00 Build 0)  -->
<svg version="1.1" id="happy-face-dark" xmlns="http://www.w3.org/2000/svg" xmlns:xlink="http://www.w3.org/1999/xlink" x="0px"
	 y="0px" viewBox="0 0 66.6 64.9" style="enable-background:new 0 0 66.6 64.9;" xml:space="preserve">
<style type="text/css">
	.st0{fill:none;}
	.st1{fill:#F41D07;}
	.st2{fill:#19B7FF;}
	.st3{fill:#181507;}
</style>
<path class="st0" d="M31.1,50.7c0.3,0,0.6,0.1,0.9,0.1c9.3,0.3,17.3-6.5,18.6-15.8l1.6,1c0-0.3,0.1-0.5,0.2-0.8l1.3,0.8
	c0.1-0.1,0.2-0.1,0.2-0.2c0.3-0.5,0.2-1.1-0.3-1.4l-3.1-2v0.7C50.2,42,42.8,49,33.9,48.7c-0.2,0-0.3,0-0.4,0c-0.4,0-0.9,0-1.4,0
	c-8.9,0-16.1-7.3-16-16.2v-0.8l-3.2,1.9c-0.4,0.3-0.6,0.9-0.3,1.4c0,0,0.1,0.1,0.1,0.1l1.3-0.8c0,0.3,0.1,0.7,0.1,1l1.7-0.8
	C16.6,42.9,23,49.4,31.1,50.7z"/>
<path class="st0" d="M23.3,28.4c-0.1,2.9,0.8,5.3,2.1,6.1c1.4-0.6,2.5-3.1,2.5-6.1c0.1-2.9-0.8-5.3-2-6.1
	C24.5,22.9,23.4,25.4,23.3,28.4z"/>
<path class="st0" d="M39,28.7c-0.1,2.8,0.8,5.2,2,6.1c1.3-0.7,2.4-3.2,2.5-6.1c0.1-2.8-0.8-5.2-2-6.1C40.1,23.2,39.1,25.7,39,28.7z"
	/>
<path class="st1" d="M52.2,36l0.2,0.1c0.4,0.2,0.9,0.1,1.3-0.1l-1.3-0.8C52.4,35.5,52.3,35.7,52.2,36z"/>
<path class="st1" d="M24.6,34.7c0.3,0,0.5,0,0.8-0.2c-1.3-0.9-2.1-3.3-2.1-6.1c0.1-3,1.2-5.5,2.6-6.1c-0.3-0.2-0.7-0.4-1.1-0.4
	c-1.8-0.1-3.3,2.8-3.3,6.3C21.4,31.8,22.8,34.7,24.6,34.7z"/>
<path class="st1" d="M40.2,35c0.3,0,0.5-0.1,0.8-0.2c-1.2-0.9-2.1-3.3-2-6.1c0.1-3,1.1-5.5,2.5-6.1c-0.3-0.2-0.7-0.4-1.1-0.4
	c-1.8-0.1-3.2,2.8-3.3,6.3C37,32.1,38.4,35,40.2,35z"/>
<path class="st1" d="M36.1,6.2C49.6,8,59.8,19.4,59.5,32.9c-0.3,14.6-12.7,26.2-27.7,25.9c-0.4,0-0.9,0-1.3-0.1
	c1.1,0.1,2.1,0.2,3.2,0.3c15,0.3,27.4-11.3,27.7-25.9C61.7,18.9,50.4,7.1,36.1,6.2z"/>
<path class="st1" d="M15.8,34.5l-1.7,0.8c1.3,8.5,8.4,14.9,16.9,15.4C23,49.4,16.6,42.9,15.8,34.5z"/>
<path class="st1" d="M50.5,33.1v-0.7l-1.8-1.1v1.8c-0.3,8.4-7,15.2-15.2,15.6c0.2,0,0.3,0,0.4,0C42.8,49,50.2,42,50.5,33.1z"/>
<path class="st1" d="M12.9,33.6l3.2-1.9v-1l-5,2.9c-0.4,0.3-0.6,0.9-0.3,1.4s0.9,0.7,1.4,0.4l0.5-0.3c0,0-0.1-0.1-0.1-0.1
	C12.3,34.5,12.5,33.9,12.9,33.6z"/>
<path class="st2" d="M53.9,35.8c-0.1,0.1-0.1,0.1-0.2,0.2l0.5,0.3c0.5,0.3,1.1,0.1,1.5-0.5c0.3-0.5,0.2-1.1-0.3-1.4l-4.9-3.1v1.1
	l3.1,2C54.1,34.7,54.2,35.3,53.9,35.8z"/>
<path class="st2" d="M43.5,28.7c-0.1,2.9-1.1,5.4-2.5,6.1c0.3,0.2,0.7,0.4,1.1,0.4c1.7,0.1,3.2-2.7,3.3-6.3c0.1-3.6-1.3-6.5-3.1-6.5
	c-0.3,0-0.6,0-0.8,0.2C42.7,23.5,43.6,25.9,43.5,28.7z"/>
<path class="st2" d="M12.7,35.1c0.3,0.4,0.9,0.6,1.3,0.3l0.1-0.1c-0.1-0.3-0.1-0.7-0.1-1L12.7,35.1z"/>
<path class="st2" d="M7.1,32C7.4,17.4,19.8,5.8,34.8,6.1c0.5,0,0.9,0,1.3,0.1C35.1,6,34,5.9,32.9,5.9C18,5.6,5.5,17.2,5.2,31.8
	C4.9,46,16.1,57.8,30.5,58.7C17.1,56.9,6.8,45.5,7.1,32z"/>
<path class="st2" d="M32.1,48.7c0.5,0,0.9,0,1.4,0c-8.7-0.2-15.7-7.4-15.6-16.2v-1.8l-1.8,1v0.8C16,41.4,23.2,48.7,32.1,48.7z"/>
<path class="st2" d="M27.9,28.4c-0.1,3.1-1.2,5.5-2.5,6.1c0.3,0.2,0.7,0.4,1,0.4c1.7,0.1,3.2-2.8,3.3-6.3c0.1-3.6-1.3-6.5-3.1-6.5
	c-0.3,0-0.5,0-0.7,0.2C27.1,23.1,28,25.5,27.9,28.4z"/>
<path class="st2" d="M32,50.8c-0.3,0-0.6,0-0.9-0.1c0.9,0.1,1.8,0.2,2.7,0.3c9,0.3,16.8-6.1,18.4-15l-1.6-1
	C49.3,44.3,41.3,51.1,32,50.8z"/>
<path class="st1" d="M59.5,32.9C59.8,19.4,49.6,8,36.1,6.2c-0.4,0-0.9-0.1-1.3-0.1C19.8,5.8,7.4,17.4,7.1,32
	c-0.3,13.5,10,24.9,23.4,26.7c0.4,0,0.9,0,1.3,0.1C46.8,59.1,59.2,47.5,59.5,32.9z M37.1,28.5c0.1-3.5,1.5-6.4,3.3-6.3
	c0.4,0,0.7,0.1,1.1,0.4c0.3-0.1,0.5-0.2,0.8-0.2c1.8,0,3.2,2.9,3.1,6.5c-0.1,3.6-1.6,6.4-3.3,6.3c-0.4,0-0.8-0.1-1.1-0.4
	c-0.3,0.1-0.5,0.2-0.8,0.2C38.4,35,37,32.1,37.1,28.5z M21.5,28.2c0-3.5,1.5-6.4,3.3-6.3c0.4,0,0.7,0.1,1.1,0.4
	c0.2-0.1,0.5-0.2,0.7-0.2c1.8,0,3.2,2.9,3.1,6.5c-0.1,3.5-1.6,6.4-3.3,6.3c-0.4,0-0.7-0.1-1-0.4c-0.2,0.1-0.5,0.2-0.8,0.2
	C22.8,34.7,21.4,31.8,21.5,28.2z M14.1,35.3L14,35.4c-0.5,0.3-1,0.1-1.3-0.3l-0.5,0.3c-0.5,0.3-1.1,0.1-1.4-0.4s-0.1-1.1,0.3-1.4
	l5-2.9v1l1.8-1v1.8c-0.1,8.7,6.9,15.9,15.6,16.2c8.3-0.4,15-7.1,15.2-15.6v-1.8l1.8,1.1v-1.1l4.9,3.1c0.5,0.3,0.6,0.9,0.3,1.4
	c-0.4,0.6-1,0.8-1.5,0.5L53.7,36c-0.4,0.3-0.9,0.4-1.3,0.1L52.2,36c-1.6,8.9-9.4,15.3-18.4,15c-0.9,0-1.8-0.1-2.7-0.3
	C22.5,50.2,15.5,43.8,14.1,35.3z"/>
<path class="st3" d="M59.5,32.9C59.8,19.4,49.6,8,36.1,6.2c-0.4,0-0.9-0.1-1.3-0.1C19.8,5.8,7.4,17.4,7.1,32
	c-0.3,13.5,10,24.9,23.4,26.7c0.4,0,0.9,0,1.3,0.1C46.8,59.1,59.2,47.5,59.5,32.9z M37.1,28.5c0.1-3.5,1.5-6.4,3.3-6.3
	c0.4,0,0.7,0.1,1.1,0.4c0.3-0.1,0.5-0.2,0.8-0.2c1.8,0,3.2,2.9,3.1,6.5c-0.1,3.6-1.6,6.4-3.3,6.3c-0.4,0-0.8-0.1-1.1-0.4
	c-0.3,0.1-0.5,0.2-0.8,0.2C38.4,35,37,32.1,37.1,28.5z M21.5,28.2c0-3.5,1.5-6.4,3.3-6.3c0.4,0,0.7,0.1,1.1,0.4
	c0.2-0.1,0.5-0.2,0.7-0.2c1.8,0,3.2,2.9,3.1,6.5c-0.1,3.5-1.6,6.4-3.3,6.3c-0.4,0-0.7-0.1-1-0.4c-0.2,0.1-0.5,0.2-0.8,0.2
	C22.8,34.7,21.4,31.8,21.5,28.2z M14.1,35.3L14,35.4c-0.5,0.3-1,0.1-1.3-0.3l-0.5,0.3c-0.5,0.3-1.1,0.1-1.4-0.4s-0.1-1.1,0.3-1.4
	l5-2.9v1l1.8-1v1.8c-0.1,8.7,6.9,15.9,15.6,16.2c8.3-0.4,15-7.1,15.2-15.6v-1.8l1.8,1.1v-1.1l4.9,3.1c0.5,0.3,0.6,0.9,0.3,1.4
	c-0.4,0.6-1,0.8-1.5,0.5L53.7,36c-0.4,0.3-0.9,0.4-1.3,0.1L52.2,36c-1.6,8.9-9.4,15.3-18.4,15c-0.9,0-1.8-0.1-2.7-0.3
	C22.5,50.2,15.5,43.8,14.1,35.3z"/>
</svg>
