<?xml version="1.0" encoding="utf-8"?>
<!-- Generator: Adobe Illustrator 26.0.1, SVG Export Plug-In . SVG Version: 6.00 Build 0)  -->
<svg version="1.1" id="Layer_1" xmlns:sketch="http://www.bohemiancoding.com/sketch/ns"
	 xmlns="http://www.w3.org/2000/svg" xmlns:xlink="http://www.w3.org/1999/xlink" x="0px" y="0px" viewBox="0 0 187 16"
	 style="enable-background:new 0 0 187 16;" xml:space="preserve">
<style type="text/css">
	.st0{fill:#181507;}
</style>
<g>
	<path class="st0" d="M10.2,8.1c1-0.8,1.5-1.9,1.5-3.4c0-1.4-0.6-2.5-1.5-3.3S8,0.2,6.3,0.2H0v15.5h2.5V9.5h3.3l3.9,6.1h2.9L8.4,9.1
		C9.1,8.9,9.7,8.6,10.2,8.1z M2.5,2.4h3.6c1,0,1.8,0.2,2.3,0.6s0.7,1.1,0.7,1.9S8.9,6.4,8.4,6.8C7.9,7.2,7.1,7.4,6.1,7.4L2.5,7.5
		V2.4z"/>
	<polygon class="st0" points="17.2,8.9 24,8.9 24,6.8 17.3,6.8 17.3,2.4 26,2.4 26,0.2 14.8,0.2 14.8,15.7 26.2,15.7 26.2,13.5 
		17.2,13.5 	"/>
	<path class="st0" d="M37.1,7.8c0.9-0.2,1.6-0.5,2.1-1.2s0.7-1.4,0.7-2.2c0-1.3-0.4-2.4-1.3-3.1c-0.9-0.7-2.2-1.1-4.1-1.1h-6.1v15.5
		l6.1-0.2c1.8,0,3.2-0.3,4.2-1.1c1-0.7,1.5-1.8,1.5-3.1c0-0.9-0.2-1.6-0.8-2.3C38.9,8.4,38.1,8,37.1,7.8z M30.9,2.3h3.4
		c1.9,0,2.9,0.8,2.9,2.3s-0.9,2.3-2.9,2.3h-3.4V2.3z M36.9,13c-0.5,0.4-1.2,0.6-2.2,0.6h-3.8V9h3.8c1,0,1.7,0.2,2.2,0.6
		c0.5,0.4,0.7,1,0.7,1.7S37.4,12.6,36.9,13z"/>
	<polygon class="st0" points="45.4,8.9 52.2,8.9 52.2,6.8 45.4,6.8 45.4,2.4 54.1,2.4 54.1,0.2 42.9,0.2 42.9,15.7 54.4,15.7 
		54.4,13.5 45.4,13.5 	"/>
	<path class="st0" d="M65.5,13.2c-0.7,0.5-1.6,0.7-2.5,0.7c-1,0-1.8-0.2-2.5-0.7s-1.2-1.1-1.6-2c-0.4-0.8-0.6-1.9-0.6-3.1
		s0.2-2.2,0.6-3.1c0.4-0.9,1-1.5,1.7-2s1.5-0.7,2.5-0.7c0.9,0,1.7,0.2,2.3,0.6s1.1,1.1,1.4,2l2.4-1.1c-0.3-0.8-0.7-1.5-1.3-2.1
		c-0.6-0.6-1.3-1-2.1-1.3C65,0.1,64.1,0,63.1,0c-1.4,0-2.7,0.4-3.8,1s-1.9,1.5-2.5,2.7S55.9,6.4,55.9,8s0.2,3,0.8,4.3
		c0.6,1.1,1.4,2.1,2.5,2.7c1.1,0.7,2.4,1,3.9,1c1,0,2-0.2,2.8-0.5c0.8-0.4,1.6-0.9,2.2-1.5c0.6-0.7,1.1-1.5,1.4-2.4L67,11
		C66.7,12,66.2,12.7,65.5,13.2z"/>
	<path class="st0" d="M80.7,13.1c-0.7,0.5-1.6,0.7-2.5,0.7c-1,0-1.8-0.2-2.5-0.7s-1.2-1.1-1.6-2c-0.4-0.8-0.6-1.9-0.6-3.1
		c0-1.3,0-2.1,0.4-3s1-1.5,1.7-2s1.5-0.7,2.5-0.7c0.9,0,1.7,0.2,2.3,0.6c0.6,0.4,1.1,1.1,1.4,2l2.4-1.1c-0.3-0.8-0.7-1.5-1.3-2.1
		c-0.6-0.6-1.3-1-2.1-1.3C80,0.1,79.1,0,78.1,0c-1.4,0-2.7,0.4-3.8,1c-1.1,0.6-1.9,1.5-2.5,2.7S70.9,6.4,70.9,8s0.2,3.2,0.8,4.3
		c0.6,1.1,1.4,2.1,2.5,2.7c1.1,0.7,2.4,1,3.9,1c1,0,2-0.2,2.8-0.5c0.8-0.4,1.6-0.9,2.2-1.5c0.6-0.7,1.1-1.5,1.4-2.4l-2.3-0.7
		C81.9,11.9,81.4,12.6,80.7,13.1z"/>
	<path class="st0" d="M91,0.3l-5.8,15.4h2.6l1.5-4h6.5l1.5,4h2.6L94,0.3H91z M90,9.6l2.6-7.2l2.5,7.2H90z"/>
	<polygon class="st0" points="116.9,9.1 115.8,12.8 114.7,9.1 111.6,0.2 107.9,0.2 107.9,15.7 110.2,15.7 110.2,6.8 110,2.5 
		114.8,15.6 116.9,15.6 121.6,2.4 121.4,6.7 121.4,15.6 123.7,15.6 123.7,0.2 120,0.2 	"/>
	<path class="st0" d="M131.2,0.3l-5.8,15.4h2.6l1.5-4h6.5l1.5,4h2.6l-5.9-15.4C134.2,0.3,131.2,0.3,131.2,0.3z M130.3,9.6l2.6-7.2
		l2.5,7.2H130.3z"/>
	<path class="st0" d="M145.6,2.9c0.7-0.5,1.5-0.7,2.5-0.7s1.8,0.2,2.5,0.6s1.2,1,1.5,1.9l2.3-1.1c-0.6-1.3-1.4-2.2-2.4-2.8
		s-2.3-0.9-3.9-0.9c-1.5,0-2.8,0.4-3.9,1c-1.1,0.7-2,1.6-2.6,2.8s-0.9,2.6-0.9,4.2c0,1.7,0.3,3.1,0.9,4.3c0.6,1.2,1.4,2.1,2.5,2.7
		c1.1,0.7,2.3,1,3.8,1c1.3,0,2.4-0.3,3.1-0.7c0.6-0.4,1.1-0.9,1.4-1.4l0.1,2h1.9v-8h-6.7v2h4.5v0.4c0,0.6-0.1,1.2-0.3,1.6
		c-0.2,0.4-0.5,0.8-0.9,1.1s-0.8,0.6-1.3,0.7c-0.5,0.1-1,0.2-1.6,0.2c-1.1,0-2-0.2-2.7-0.7s-1.2-1.1-1.6-2c-0.3-0.8-0.5-1.9-0.5-3.1
		s0.2-2.2,0.6-3.1C144.3,4,144.9,3.4,145.6,2.9z"/>
	<path class="st0" d="M162.5,0.3l-5.8,15.4h2.6l1.5-4h6.5l1.5,4h2.6l-5.9-15.4C165.5,0.3,162.5,0.3,162.5,0.3z M161.5,9.6l2.5-7.2
		l2.6,7.2H161.5z"/>
	<path class="st0" d="M185.8,15.6L181.5,9c0.7-0.2,1.3-0.5,1.9-0.9c1-0.8,1.5-1.9,1.5-3.4c0-1.4-0.6-2.5-1.5-3.3s-2.2-1.2-3.9-1.2
		h-6.3v15.4h2.5V9.4h3.4l3.9,6.2C183,15.6,185.8,15.6,185.8,15.6z M175.7,2.4h3.6c1.1,0,1.8,0.2,2.3,0.6s0.7,1.1,0.7,1.9
		s-0.2,1.5-0.7,1.9s-1.3,0.6-2.3,0.6l-3.6,0.1V2.4z"/>
</g>
</svg>
