<?xml version="1.0" encoding="utf-8"?>
<!-- Generator: Adobe Illustrator 26.0.1, SVG Export Plug-In . SVG Version: 6.00 Build 0)  -->
<svg version="1.1" id="Layer_1" xmlns="http://www.w3.org/2000/svg" xmlns:xlink="http://www.w3.org/1999/xlink" x="0px" y="0px"
	 viewBox="0 0 40 40" style="enable-background:new 0 0 40 40;" xml:space="preserve">
<style type="text/css">
	.st0{fill:none;}
	.st1{fill:#FFFFFF;}
</style>
<rect class="st0" width="40" height="40"/>
<g>
	<path class="st1" d="M29.2,13.5H10.8c-0.8,0-1.5-0.7-1.5-1.5l0,0c0-0.8,0.7-1.5,1.5-1.5h18.3c0.8,0,1.5,0.7,1.5,1.5l0,0
		C30.7,12.8,30,13.5,29.2,13.5z"/>
</g>
<g>
	<path class="st1" d="M29.2,21.2H10.8c-0.8,0-1.5-0.7-1.5-1.5l0,0c0-0.8,0.7-1.5,1.5-1.5h18.3c0.8,0,1.5,0.7,1.5,1.5l0,0
		C30.7,20.5,30,21.2,29.2,21.2z"/>
</g>
<g>
	<path class="st1" d="M29.2,28.8H10.8c-0.8,0-1.5-0.7-1.5-1.5l0,0c0-0.8,0.7-1.5,1.5-1.5h18.3c0.8,0,1.5,0.7,1.5,1.5l0,0
		C30.7,28.1,30,28.8,29.2,28.8z"/>
</g>
</svg>
